<svg xmlns="http://www.w3.org/2000/svg" xmlns:xlink="http://www.w3.org/1999/xlink" width="60px" height="60px" viewBox="0 0 60 60" version="1.1">
    <title>Account Icon</title>
    <g id="Account-Icon" stroke="none" stroke-width="1" fill="none" fill-rule="evenodd">
        <path d="M30.5015492,12.0018694 C30.5015492,12.0018694 37.2995502,11.7503224 39.9921039,17.0831196 C41.9968016,21.0516441 41.7737131,26.7158916 38.3623188,29.6930248 C36.9277361,30.9389225 35.7658171,31.4597728 35.7658171,31.4597728 L35.7658171,32.7885331 C35.7658171,32.7885331 46,35.1175627 46,42.3414019 C46,42.3414019 44.4073963,44.2383625 41.3275362,46.0702168 C39.0470765,47.4285708 35.490055,49 30.7091454,49 C25.9282359,49 22.141929,47.5972553 19.6724638,46.0702168 C16.7165417,44.2383625 15,42.3414019 15,42.3414019 C15,35.1175627 25.2341829,32.7885331 25.2341829,32.7885331 L25.2341829,31.4597728 C25.2341829,31.4597728 24.0722639,30.9389225 22.6407796,29.6930248 C19.2262869,26.7158916 19.0062969,21.0516441 21.0078961,17.0831196 C23.7004498,11.7503224 30.5015492,12.0018694 30.5015492,12.0018694 Z" stroke="#0276B3" stroke-width="1.825"/>
    </g>
</svg>